<svg width="34" height="34" viewBox="0 0 34 34" fill="none" xmlns="http://www.w3.org/2000/svg">
<path d="M9.76216 5.14V15.5H8.15216V7.674L6.19216 7.688V6.722L6.52816 6.624C7.05083 6.46533 7.47083 6.288 7.78816 6.092C8.11483 5.896 8.42283 5.62533 8.71216 5.28L8.83816 5.14H9.76216ZM12.2456 15.5V14.366L14.3596 12.448C15.0316 11.8507 15.615 11.3327 16.1096 10.894C16.6043 10.446 16.987 10.0213 17.2576 9.62C17.5376 9.20933 17.6776 8.76133 17.6776 8.276C17.6776 7.89333 17.5843 7.56667 17.3976 7.296C17.211 7.02533 16.973 6.82 16.6836 6.68C16.3943 6.53067 16.091 6.456 15.7736 6.456C15.391 6.456 15.0736 6.52133 14.8216 6.652C14.579 6.77333 14.383 6.932 14.2336 7.128C14.0936 7.31467 13.991 7.51067 13.9256 7.716C13.8603 7.912 13.8183 8.08933 13.7996 8.248C13.781 8.39733 13.7716 8.49067 13.7716 8.528H12.2036C12.2036 8.42533 12.2223 8.23867 12.2596 7.968C12.3063 7.69733 12.395 7.39867 12.5256 7.072C12.6656 6.736 12.8663 6.40933 13.1276 6.092C13.3983 5.77467 13.7483 5.51333 14.1776 5.308C14.6163 5.10267 15.1623 5 15.8156 5C16.441 5 17.0196 5.126 17.5516 5.378C18.0836 5.63 18.5083 5.99867 18.8256 6.484C19.1523 6.96 19.3156 7.53867 19.3156 8.22C19.3156 8.84533 19.157 9.41467 18.8396 9.928C18.5316 10.432 18.1116 10.9313 17.5796 11.426C17.057 11.9113 16.4736 12.434 15.8296 12.994L14.6676 14.044H19.5116V15.5H12.2456ZM21.4615 15.5V4.86H23.0575V11.034L25.8435 8.08H27.8035L24.5695 11.468L27.9015 15.5H25.9275L23.0575 12V15.5H21.4615Z" fill="black"/>
<path d="M3.69309 30.6C3.26642 30.6 2.89975 30.5467 2.59309 30.44C2.29309 30.3267 2.04309 30.1833 1.84309 30.01C1.64309 29.83 1.48309 29.6433 1.36309 29.45C1.24309 29.2567 1.15309 29.0733 1.09309 28.9C1.03309 28.72 0.993086 28.5767 0.973086 28.47C0.959753 28.3567 0.953086 28.3 0.953086 28.3H1.95309C1.95309 28.3 1.96309 28.3467 1.98309 28.44C2.00309 28.5333 2.04309 28.65 2.10309 28.79C2.16975 28.93 2.26642 29.0733 2.39309 29.22C2.51975 29.36 2.68975 29.4767 2.90309 29.57C3.11642 29.6633 3.38642 29.71 3.71309 29.71C4.20642 29.71 4.59642 29.5933 4.88309 29.36C5.16975 29.12 5.31309 28.81 5.31309 28.43C5.31309 28.1033 5.20309 27.85 4.98309 27.67C4.76975 27.49 4.46309 27.35 4.06309 27.25L3.08309 27.01C2.73642 26.9233 2.41309 26.8033 2.11309 26.65C1.81975 26.49 1.58309 26.2833 1.40309 26.03C1.22975 25.77 1.14309 25.4467 1.14309 25.06C1.14309 24.6267 1.24975 24.2567 1.46309 23.95C1.67642 23.6433 1.96642 23.41 2.33309 23.25C2.69975 23.0833 3.11642 23 3.58309 23C4.03642 23 4.41309 23.07 4.71309 23.21C5.01309 23.35 5.25309 23.5233 5.43309 23.73C5.61309 23.93 5.74642 24.1333 5.83309 24.34C5.91975 24.54 5.97642 24.71 6.00309 24.85C6.02975 24.99 6.04309 25.06 6.04309 25.06H5.08309C5.08309 25.06 5.06975 25 5.04309 24.88C5.01642 24.76 4.95309 24.6233 4.85309 24.47C4.75309 24.31 4.59975 24.17 4.39309 24.05C4.18642 23.93 3.90642 23.87 3.55309 23.87C3.07309 23.87 2.70975 23.9833 2.46309 24.21C2.22309 24.4367 2.10309 24.6967 2.10309 24.99C2.10309 25.2567 2.19975 25.4733 2.39309 25.64C2.58642 25.8 2.85309 25.9233 3.19309 26.01L4.25309 26.27C4.63309 26.3633 4.97642 26.5 5.28309 26.68C5.58975 26.8533 5.83309 27.08 6.01309 27.36C6.19309 27.6333 6.28309 27.97 6.28309 28.37C6.28309 28.77 6.18309 29.14 5.98309 29.48C5.78975 29.82 5.49975 30.0933 5.11309 30.3C4.73309 30.5 4.25975 30.6 3.69309 30.6ZM7.56074 30.5V22.9H8.51074V25.97H8.57074C8.61741 25.89 8.69408 25.78 8.80074 25.64C8.91408 25.5 9.07408 25.3767 9.28074 25.27C9.48741 25.1567 9.74741 25.1 10.0607 25.1C10.4474 25.1 10.7774 25.19 11.0507 25.37C11.3241 25.5433 11.5307 25.78 11.6707 26.08C11.8174 26.38 11.8907 26.7167 11.8907 27.09V30.5H10.9407V27.15C10.9407 26.7967 10.8407 26.5033 10.6407 26.27C10.4474 26.0367 10.1641 25.92 9.79074 25.92C9.49074 25.92 9.24741 25.9967 9.06074 26.15C8.87408 26.2967 8.73408 26.4933 8.64074 26.74C8.55408 26.98 8.51074 27.2367 8.51074 27.51V30.5H7.56074ZM15.5908 25.1C15.9242 25.1 16.2042 25.1533 16.4308 25.26C16.6575 25.3667 16.8408 25.4933 16.9808 25.64C17.1208 25.78 17.2275 25.9133 17.3008 26.04H17.3608V25.2H18.3108V30.5H17.3608V29.66H17.3008C17.2275 29.7867 17.1208 29.9233 16.9808 30.07C16.8408 30.2167 16.6575 30.3433 16.4308 30.45C16.2042 30.55 15.9242 30.6 15.5908 30.6C15.1908 30.6 14.8408 30.5233 14.5408 30.37C14.2408 30.21 13.9908 30 13.7908 29.74C13.5908 29.4733 13.4408 29.1767 13.3408 28.85C13.2408 28.5233 13.1908 28.19 13.1908 27.85C13.1908 27.51 13.2408 27.1767 13.3408 26.85C13.4408 26.5233 13.5908 26.23 13.7908 25.97C13.9908 25.7033 14.2408 25.4933 14.5408 25.34C14.8408 25.18 15.1908 25.1 15.5908 25.1ZM15.7508 25.91C15.3975 25.91 15.1008 26.0067 14.8608 26.2C14.6208 26.3867 14.4408 26.6267 14.3208 26.92C14.2075 27.2133 14.1508 27.5233 14.1508 27.85C14.1508 28.17 14.2075 28.48 14.3208 28.78C14.4408 29.0733 14.6208 29.3167 14.8608 29.51C15.1008 29.6967 15.3975 29.79 15.7508 29.79C16.1042 29.79 16.3975 29.6967 16.6308 29.51C16.8708 29.3167 17.0475 29.0733 17.1608 28.78C17.2808 28.48 17.3408 28.17 17.3408 27.85C17.3408 27.5233 17.2808 27.2133 17.1608 26.92C17.0475 26.6267 16.8708 26.3867 16.6308 26.2C16.3975 26.0067 16.1042 25.91 15.7508 25.91ZM19.7068 30.5V25.2H20.6568V25.86H20.6968C20.8102 25.66 20.9768 25.4833 21.1968 25.33C21.4168 25.1767 21.7268 25.1 22.1268 25.1C22.2402 25.1 22.3435 25.1067 22.4368 25.12C22.5302 25.1267 22.5768 25.13 22.5768 25.13V26.04C22.5768 26.04 22.5235 26.0367 22.4168 26.03C22.3168 26.0167 22.2102 26.01 22.0968 26.01C21.6368 26.01 21.2802 26.1433 21.0268 26.41C20.7802 26.67 20.6568 27.0967 20.6568 27.69V30.5H19.7068ZM25.6325 30.6C25.1991 30.6 24.8225 30.5233 24.5025 30.37C24.1891 30.21 23.9291 29.9967 23.7225 29.73C23.5225 29.4633 23.3725 29.17 23.2725 28.85C23.1725 28.5233 23.1225 28.19 23.1225 27.85C23.1225 27.5167 23.1691 27.1867 23.2625 26.86C23.3625 26.5333 23.5125 26.2367 23.7125 25.97C23.9191 25.7033 24.1758 25.4933 24.4825 25.34C24.7958 25.18 25.1658 25.1 25.5925 25.1C26.0458 25.1 26.4458 25.2033 26.7925 25.41C27.1391 25.6167 27.4125 25.9233 27.6125 26.33C27.8125 26.7367 27.9125 27.2467 27.9125 27.86V28.14H24.0825C24.1025 28.44 24.1725 28.7167 24.2925 28.97C24.4191 29.2167 24.5958 29.4167 24.8225 29.57C25.0491 29.7167 25.3191 29.79 25.6325 29.79C25.9058 29.79 26.1258 29.7467 26.2925 29.66C26.4658 29.5667 26.6025 29.46 26.7025 29.34C26.8025 29.22 26.8691 29.1167 26.9025 29.03C26.9425 28.9367 26.9625 28.89 26.9625 28.89H27.8525C27.8525 28.89 27.8358 28.95 27.8025 29.07C27.7691 29.1833 27.7091 29.3233 27.6225 29.49C27.5358 29.6567 27.4091 29.8267 27.2425 30C27.0758 30.1667 26.8625 30.31 26.6025 30.43C26.3425 30.5433 26.0191 30.6 25.6325 30.6ZM24.0925 27.4H26.9825C26.9691 27.0533 26.8958 26.7733 26.7625 26.56C26.6291 26.34 26.4591 26.1767 26.2525 26.07C26.0458 25.9633 25.8258 25.91 25.5925 25.91C25.1725 25.91 24.8291 26.0467 24.5625 26.32C24.2958 26.5867 24.1391 26.9467 24.0925 27.4ZM31.1488 30.6C30.7421 30.6 30.4055 30.5433 30.1388 30.43C29.8788 30.3167 29.6721 30.1767 29.5188 30.01C29.3655 29.8367 29.2521 29.6667 29.1788 29.5C29.1055 29.3267 29.0588 29.1833 29.0388 29.07C29.0188 28.9567 29.0088 28.9 29.0088 28.9H29.9688C29.9688 28.9 29.9788 28.9467 29.9988 29.04C30.0255 29.1267 30.0755 29.23 30.1488 29.35C30.2288 29.4633 30.3488 29.5667 30.5088 29.66C30.6755 29.7467 30.8955 29.79 31.1688 29.79C31.4821 29.79 31.7255 29.7167 31.8988 29.57C32.0721 29.4167 32.1588 29.23 32.1588 29.01C32.1588 28.8167 32.0888 28.6633 31.9488 28.55C31.8155 28.4367 31.6221 28.35 31.3688 28.29L30.6488 28.12C30.3821 28.0533 30.1321 27.9633 29.8988 27.85C29.6655 27.7367 29.4755 27.5833 29.3288 27.39C29.1888 27.19 29.1188 26.9433 29.1188 26.65C29.1188 26.1967 29.2888 25.8267 29.6288 25.54C29.9688 25.2467 30.4121 25.1 30.9588 25.1C31.3255 25.1 31.6288 25.1533 31.8688 25.26C32.1088 25.36 32.2988 25.4867 32.4388 25.64C32.5855 25.7933 32.6921 25.9467 32.7588 26.1C32.8321 26.2533 32.8788 26.3833 32.8988 26.49C32.9188 26.59 32.9288 26.64 32.9288 26.64H32.0088C32.0088 26.64 31.9988 26.6033 31.9788 26.53C31.9588 26.45 31.9121 26.3633 31.8388 26.27C31.7721 26.17 31.6688 26.0833 31.5288 26.01C31.3888 25.93 31.2021 25.89 30.9688 25.89C30.6488 25.89 30.4155 25.9633 30.2688 26.11C30.1221 26.2567 30.0488 26.4167 30.0488 26.59C30.0488 26.7567 30.1155 26.8933 30.2488 27C30.3888 27.1 30.5688 27.1767 30.7888 27.23L31.5188 27.4C31.9721 27.5067 32.3455 27.6833 32.6388 27.93C32.9388 28.17 33.0888 28.5167 33.0888 28.97C33.0888 29.2633 33.0121 29.5367 32.8588 29.79C32.7055 30.0367 32.4855 30.2333 32.1988 30.38C31.9121 30.5267 31.5621 30.6 31.1488 30.6Z" fill="black"/>
</svg>
