<svg width="40" height="40" viewBox="0 0 40 40" fill="none" xmlns="http://www.w3.org/2000/svg">
<rect width="40" height="40" rx="3" fill="#96D03A"/>
<path d="M28 26.08C27.24 26.08 26.56 26.38 26.04 26.85L18.91 22.7C18.96 22.47 19 22.24 19 22C19 21.76 18.96 21.53 18.91 21.3L25.96 17.19C26.5 17.69 27.21 18 28 18C28.7956 18 29.5587 17.6839 30.1213 17.1213C30.6839 16.5587 31 15.7956 31 15C31 14.2044 30.6839 13.4413 30.1213 12.8787C29.5587 12.3161 28.7956 12 28 12C27.2044 12 26.4413 12.3161 25.8787 12.8787C25.3161 13.4413 25 14.2044 25 15C25 15.24 25.04 15.47 25.09 15.7L18.04 19.81C17.5 19.31 16.79 19 16 19C15.2044 19 14.4413 19.3161 13.8787 19.8787C13.3161 20.4413 13 21.2044 13 22C13 22.7956 13.3161 23.5587 13.8787 24.1213C14.4413 24.6839 15.2044 25 16 25C16.79 25 17.5 24.69 18.04 24.19L25.16 28.34C25.11 28.55 25.08 28.77 25.08 29C25.08 30.61 26.39 31.91 28 31.91C29.61 31.91 30.92 30.61 30.92 29C30.92 28.2256 30.6124 27.4829 30.0648 26.9352C29.5171 26.3876 28.7744 26.08 28 26.08Z" fill="white"/>
</svg>
