<svg width="40" height="40" viewBox="0 0 40 40" fill="none" xmlns="http://www.w3.org/2000/svg">
<rect width="40" height="40" rx="3" fill="#CA2127"/>
<g clip-path="url(#clip0_77_2543)">
<path d="M10 22.0002C10 26.914 12.9548 31.1354 17.183 32.9913C17.1493 32.1534 17.177 31.1475 17.3919 30.2358C17.6226 29.2616 18.936 23.6969 18.936 23.6969C18.936 23.6969 18.5526 22.9307 18.5526 21.7983C18.5526 20.0199 19.5833 18.6917 20.8669 18.6917C21.9585 18.6917 22.4858 19.5116 22.4858 20.4933C22.4858 21.5906 21.786 23.2319 21.4261 24.752C21.1254 26.025 22.0643 27.0632 23.3201 27.0632C25.5937 27.0632 27.125 24.143 27.125 20.6831C27.125 18.053 25.3536 16.0845 22.1317 16.0845C18.4916 16.0845 16.2239 18.7991 16.2239 21.8313C16.2239 22.8768 16.5321 23.6141 17.0149 24.185C17.2369 24.4473 17.2678 24.5527 17.1874 24.8538C17.1299 25.0746 16.9977 25.6062 16.9429 25.8168C16.8631 26.1208 16.6168 26.2294 16.3421 26.1172C14.6655 25.4328 13.8846 23.5967 13.8846 21.5327C13.8846 18.1238 16.7596 14.0363 22.4611 14.0363C27.0426 14.0363 30.0581 17.3517 30.0581 20.9105C30.0581 25.618 27.441 29.1348 23.5832 29.1348C22.2876 29.1348 21.069 28.4345 20.6515 27.6391C20.6515 27.6391 19.9548 30.4039 19.8073 30.9378C19.5528 31.8631 19.0548 32.7878 18.5995 33.5086C19.7036 33.835 20.8491 34.0008 22.0005 34.0007C28.6271 34.0007 34.0001 28.6279 34.0001 22.0002C34.0001 15.3727 28.6271 10 22.0005 10C15.3732 10 10 15.3727 10 22.0002Z" fill="white"/>
</g>
<defs>
<clipPath id="clip0_77_2543">
<rect width="24" height="24" fill="white" transform="translate(10 10)"/>
</clipPath>
</defs>
</svg>
